{"title":"[Best on Net] Teen Patti (2010) 1CD DVD Rip X264 AC3 [Dare DEvil","uid":5539198,"size":724981812,"categoryP":"video","categoryS":"movies","magnet":"?xt=urn:btih:57e2142cece9b639aa59b7b4832263797418c94c&amp;dn=%5BBest+on+Net%5D+Teen+Patti+%282010%29+1CD+DVD+Rip+X264+AC3+%5BDare+DEvil&amp;tr=udp%3A%2F%2Ftracker.openbittorrent.com%3A80&amp;tr=udp%3A%2F%2Fopen.demonii.com%3A1337&amp;tr=udp%3A%2F%2Ftracker.coppersurfer.tk%3A6969&amp;tr=udp%3A%2F%2Fexodus.desync.com%3A6969","seeders":0,"leechers":0,"uploader":"luvwithromio","files":-1,"time":1273168893,"description":"Format                           : AVI\nFormat/Info                      : Audio Video Interleave\nFile size                        : 691 MiB\nDuration                         : 2h 23mn\nOverall bit rate                 : 676 Kbps\n\nVideo\nID                               : 0\nFormat                           : AVC\nFormat/Info                      : Advanced Video Codec\nFormat profile                   : &lt;a class=&quot;__cf_email__&quot; href=&quot;/cdn-cgi/l/email-protection&quot; data-cfemail=&quot;2f674648476f631d011e&quot;&gt;[email&amp;#160;protected]&lt;/a&gt;&lt;script cf-hash='f9e31' type=&quot;text/javascript&quot;&gt;\n/* &lt;![CDATA[ */!function(){try{var t=&quot;currentScript&quot;in document?document.currentScript:function(){for(var t=document.getElementsByTagName(&quot;script&quot;),e=t.length;e--;)if(t[e].getAttribute(&quot;cf-hash&quot;))return t[e]}();if(t&amp;&amp;t.previousSibling){var e,r,n,i,c=t.previousSibling,a=c.getAttribute(&quot;data-cfemail&quot;);if(a){for(e=&quot;&quot;,r=parseInt(a.substr(0,2),16),n=2;a.length-n;n+=2)i=parseInt(a.substr(n,2),16)^r,e+=String.fromCharCode(i);e=document.createTextNode(e),c.parentNode.replaceChild(e,c)}}}catch(u){}}();/* ]]&gt; */&lt;/script&gt;\nFormat settings, CABAC           : Yes\nFormat settings, ReFrames        : 3 frames\nCodec ID                         : H264\nDuration                         : 2h 23mn\nBit rate                         : 537 Kbps\nWidth                            : 640 pixels\nHeight                           : 272 pixels\nDisplay aspect ratio             : 2.35:1\nFrame rate                       : 23.976 fps\nResolution                       : 8 bits\nColorimetry                      : 4:2:0\nScan type                        : Progressive\nBits/(Pixel*Frame)               : 0.129\nStream size                      : 549 MiB (79%)\nWriting library                  : x264 core 68\n\nAudio\nID                               : 1\nFormat                           : AC-3\nFormat/Info                      : Audio Coding 3\nFormat_Settings_ModeExtension    : CM (complete main)\nCodec ID                         : 2000\nDuration                         : 2h 23mn\nBit rate mode                    : Constant\nBit rate                         : 128 Kbps\nChannel(s)                       : 3 channels\nChannel positions                : Front: L C R\nSampling rate                    : 48.0 KHz\nResolution                       : 16 bits\nStream size                      : 131 MiB (19%)\nAlignment                        : Aligned on interleaves\nInterleave, duration             : 32 ms (0.77 video frame)","torrent":{"xt":"urn:btih:57e2142cece9b639aa59b7b4832263797418c94c","amp;dn":"%5BBest+on+Net%5D+Teen+Patti+%282010%29+1CD+DVD+Rip+X264+AC3+%5BDare+DEvil","amp;tr":["udp%3A%2F%2Ftracker.openbittorrent.com%3A80","udp%3A%2F%2Fopen.demonii.com%3A1337","udp%3A%2F%2Ftracker.coppersurfer.tk%3A6969","udp%3A%2F%2Fexodus.desync.com%3A6969"],"infoHash":"57e2142cece9b639aa59b7b4832263797418c94c","infoHashBuffer":{"type":"Buffer","data":[87,226,20,44,236,233,182,57,170,89,183,180,131,34,99,121,116,24,201,76]},"announce":[],"urlList":[]}}